<?xml version="1.0" encoding="UTF-8" standalone="no"?>
<svg
   xmlns:dc="http://purl.org/dc/elements/1.1/"
   xmlns:cc="http://creativecommons.org/ns#"
   xmlns:rdf="http://www.w3.org/1999/02/22-rdf-syntax-ns#"
   xmlns:svg="http://www.w3.org/2000/svg"
   xmlns="http://www.w3.org/2000/svg"
   xmlns:sodipodi="http://sodipodi.sourceforge.net/DTD/sodipodi-0.dtd"
   xmlns:inkscape="http://www.inkscape.org/namespaces/inkscape"
   version="1.1"
   id="svg865"
   xml:space="preserve"
   width="160"
   height="56"
   viewBox="0 0 160 56"
   sodipodi:docname="ccby.svg"
   inkscape:version="1.0.2 (e86c8708, 2021-01-15)"><metadata
     id="metadata871"><rdf:RDF><cc:Work
         rdf:about=""><dc:format>image/svg+xml</dc:format><dc:type
           rdf:resource="http://purl.org/dc/dcmitype/StillImage" /><dc:title></dc:title></cc:Work></rdf:RDF></metadata><defs
     id="defs869" /><sodipodi:namedview
     pagecolor="#ffffff"
     bordercolor="#666666"
     borderopacity="1"
     objecttolerance="10"
     gridtolerance="10"
     guidetolerance="10"
     inkscape:pageopacity="0"
     inkscape:pageshadow="2"
     inkscape:window-width="749"
     inkscape:window-height="480"
     id="namedview867"
     showgrid="false"
     inkscape:zoom="7.30625"
     inkscape:cx="80"
     inkscape:cy="28"
     inkscape:window-x="0"
     inkscape:window-y="25"
     inkscape:window-maximized="0"
     inkscape:current-layer="g873" /><g
     id="g873"
     inkscape:groupmode="layer"
     inkscape:label="ink_ext_XXXXXX"
     transform="matrix(1.3333333,0,0,-1.3333333,0,56)"><g
       id="g875"
       transform="scale(0.1)"><path
         d="M 31.4023,414.926 1164.94,412.91 c 15.84,0 29.98,2.348 29.98,-31.601 L 1193.54,8.01953 H 2.79297 V 382.695 c 0,16.743 1.62109,32.231 28.60933,32.231"
         style="fill:#a7b1a6;fill-opacity:1;fill-rule:nonzero;stroke:none"
         id="path877" /><path
         d="M 1177.52,420 H 22.4727 C 10.082,420 0,409.922 0,397.535 V 5.06641 C 0,2.26563 2.27344,0 5.07422,0 H 1194.92 c 2.81,0 5.08,2.26563 5.08,5.06641 V 397.535 C 1200,409.922 1189.92,420 1177.52,420 Z M 22.4727,409.848 H 1177.52 c 6.8,0 12.32,-5.524 12.32,-12.313 0,0 0,-158.472 0,-272.762 H 361.598 C 331.34,70.0664 273.043,32.9219 206.133,32.9219 139.199,32.9219 80.918,70.0391 50.6758,124.773 H 10.1523 c 0,114.29 0,272.762 0,272.762 0,6.789 5.5274,12.313 12.3204,12.313"
         style="fill:#100f0d;fill-opacity:1;fill-rule:nonzero;stroke:none"
         id="path879" /><path
         d="m 738.086,92.5195 c 3.164,0 6.035,-0.2734 8.652,-0.832 2.598,-0.5547 4.825,-1.4609 6.68,-2.7305 1.855,-1.2617 3.301,-2.9492 4.328,-5.0507 1.016,-2.1094 1.531,-4.6875 1.531,-7.793 0,-3.3399 -0.761,-6.1133 -2.285,-8.332 -1.512,-2.2344 -3.769,-4.0508 -6.738,-5.4766 4.101,-1.1719 7.16,-3.2227 9.18,-6.1719 2.011,-2.9297 3.027,-6.4844 3.027,-10.625 0,-3.3398 -0.652,-6.2305 -1.953,-8.6719 -1.297,-2.4414 -3.059,-4.4336 -5.254,-5.9765 -2.195,-1.5508 -4.707,-2.6953 -7.527,-3.4375 -2.825,-0.7422 -5.715,-1.1133 -8.696,-1.1133 h -32.156 v 66.2109 h 31.211 z M 736.23,65.7422 c 2.598,0 4.727,0.625 6.407,1.8555 1.679,1.2304 2.508,3.2343 2.508,6.0078 0,1.539 -0.282,2.8125 -0.829,3.7968 -0.566,0.9883 -1.308,1.7579 -2.234,2.3165 -0.93,0.5546 -2.004,0.9453 -3.203,1.1523 -1.203,0.2148 -2.473,0.3203 -3.762,0.3203 H 721.465 V 65.7422 Z m 0.852,-28.1055 c 1.426,0 2.781,0.1367 4.09,0.4219 1.289,0.2812 2.441,0.75 3.437,1.3828 0.996,0.6563 1.778,1.5352 2.364,2.6484 0.605,1.1133 0.886,2.5391 0.886,4.2657 0,3.3906 -0.964,5.8242 -2.879,7.2773 -1.921,1.4453 -4.46,2.168 -7.617,2.168 H 721.465 V 37.6367 h 15.617"
         style="fill:#ffffff;fill-opacity:1;fill-rule:nonzero;stroke:none"
         id="path881" /><path
         d="m 765.027,92.5195 h 16.34 l 15.508,-26.1523 15.41,26.1523 h 16.231 L 803.938,51.7188 V 26.3086 h -14.602 v 25.7812 l -24.309,40.4297"
         style="fill:#ffffff;fill-opacity:1;fill-rule:nonzero;stroke:none"
         id="path883" /><path
         d="M 342.539,223.941 C 342.59,148.645 281.578,87.5781 206.273,87.5195 130.977,87.4805 69.8867,148.477 69.8438,223.773 c 0,0.055 0,0.11 0,0.168 -0.043,75.297 60.9692,136.368 136.2652,136.411 75.313,0.046 136.387,-60.957 136.43,-136.25 0,-0.047 0,-0.106 0,-0.161"
         style="fill:#ffffff;fill-opacity:1;fill-rule:nonzero;stroke:none"
         id="path885" /><path
         d="m 317.031,334.984 c 30.235,-30.234 45.356,-67.254 45.356,-111.043 0,-43.804 -14.86,-80.425 -44.574,-109.878 C 286.277,83.0391 249.004,67.5273 206,67.5273 c -42.488,0 -79.113,15.3829 -109.8672,46.1447 -30.7617,30.754 -46.1367,67.512 -46.1367,110.269 0,42.747 15.375,79.766 46.1367,111.043 29.9722,30.243 66.5972,45.364 109.8672,45.364 43.789,0 80.797,-15.121 111.031,-45.364 z M 116.484,314.648 C 90.9219,288.828 78.1484,258.59 78.1484,223.895 c 0,-34.676 12.6524,-64.665 37.9456,-89.95 25.301,-25.3 55.422,-37.9489 90.367,-37.9489 34.945,0 65.32,12.7739 91.141,38.3279 24.519,23.742 36.777,53.586 36.777,89.571 0,35.718 -12.461,66.043 -37.367,90.945 -24.903,24.902 -55.086,37.355 -90.551,37.355 -35.465,0 -65.465,-12.515 -89.977,-37.547 z m 67.27,-75.492 c -3.906,8.516 -9.75,12.774 -17.547,12.774 -13.789,0 -20.68,-9.285 -20.68,-27.836 0,-18.555 6.891,-27.824 20.68,-27.824 9.102,0 15.606,4.511 19.508,13.566 l 19.105,-10.18 c -9.105,-16.179 -22.773,-24.265 -40.992,-24.265 -14.055,0 -25.312,4.304 -33.765,12.91 -8.465,8.613 -12.688,20.5 -12.688,35.64 0,14.872 4.359,26.684 13.078,35.434 8.719,8.746 19.574,13.113 32.598,13.113 19.258,0 33.047,-7.586 41.387,-22.746 z m 89.902,0 c -3.91,8.516 -9.64,12.774 -17.195,12.774 -14.063,0 -21.102,-9.285 -21.102,-27.836 0,-18.555 7.039,-27.824 21.102,-27.824 9.113,0 15.504,4.511 19.144,13.566 l 19.536,-10.18 c -9.09,-16.179 -22.739,-24.265 -40.922,-24.265 -14.031,0 -25.27,4.304 -33.715,12.91 -8.434,8.613 -12.66,20.5 -12.66,35.64 0,14.872 4.289,26.684 12.863,35.434 8.57,8.746 19.481,13.113 32.734,13.113 19.227,0 32.997,-7.586 41.305,-22.746 l -21.09,-10.586"
         style="fill:#100f0d;fill-opacity:1;fill-rule:nonzero;stroke:none"
         id="path887" /><path
         d="m 762.676,375.215 c 59.304,0 107.383,-48.074 107.383,-107.383 0,-59.301 -48.079,-107.383 -107.383,-107.383 -59.317,0 -107.403,48.082 -107.403,107.383 0,59.309 48.086,107.383 107.403,107.383"
         style="fill:#ffffff;fill-opacity:1;fill-rule:nonzero;stroke:none"
         id="path889" /><path
         d="m 793.75,298.902 c 0,4.141 -3.359,7.489 -7.48,7.489 h -47.442 c -4.121,0 -7.48,-3.348 -7.48,-7.489 v -47.425 h 13.222 v -56.164 h 35.95 v 56.164 h 13.23 v 47.425 0"
         style="fill:#100f0d;fill-opacity:1;fill-rule:nonzero;stroke:none"
         id="path891" /><path
         d="m 762.539,345.082 c 8.965,0 16.231,-7.266 16.231,-16.227 0,-8.957 -7.266,-16.222 -16.231,-16.222 -8.953,0 -16.223,7.265 -16.223,16.222 0,8.961 7.27,16.227 16.223,16.227"
         style="fill:#100f0d;fill-opacity:1;fill-rule:nonzero;stroke:none"
         id="path893" /><path
         d="m 762.402,386.145 c -32.129,0 -59.316,-11.207 -81.57,-33.625 -22.832,-23.188 -34.25,-50.633 -34.25,-82.325 0,-31.683 11.418,-58.941 34.25,-81.738 22.84,-22.805 50.027,-34.199 81.57,-34.199 31.934,0 59.61,11.484 83.008,34.492 22.07,21.824 33.106,48.98 33.106,81.445 0,32.473 -11.231,59.907 -33.672,82.325 -22.461,22.418 -49.93,33.625 -82.442,33.625 z m 0.293,-20.868 c 26.309,0 48.672,-9.281 67.051,-27.832 18.574,-18.351 27.852,-40.769 27.852,-67.25 0,-26.664 -9.082,-48.793 -27.278,-66.379 -19.168,-18.933 -41.695,-28.406 -67.625,-28.406 -25.945,0 -48.3,9.375 -67.05,28.113 -18.79,18.75 -28.165,40.973 -28.165,66.672 0,25.707 9.493,48.121 28.458,67.25 18.183,18.551 40.429,27.832 66.757,27.832"
         style="fill:#100f0d;fill-opacity:1;fill-rule:nonzero;stroke:none"
         id="path895" /></g></g></svg>
